# xmcd
#
# Track frame offsets: 
#        150
#        20132
#        42332
#        73892
#        98715
#        118990
#        143135
#        172402
#        208032
#        228232
#        257180
#
# Disc length: 3751 seconds
#
# Revision: 1
# Processed by: cddbd v1.5.2PL0 Copyright (c) Steve Scherf et al.
# Submitted via: ExactAudioCopy v0.99pb5
#
DISCID=ac0ea50b
DTITLE=Oscar Klein - Oscar Klein European All Stars featuring Sammy Pr
DTITLE=ice
DYEAR=1900
DGENRE=Jazz
TTITLE0=Avalon
TTITLE1=St. Louis Blues
TTITLE2=Royal Garden Blues
TTITLE3=Body And Soul
TTITLE4=I'm Coming Virginia
TTITLE5=Sweet Georgia Brown
TTITLE6=Gigantic Boogie
TTITLE7=After You've Gone
TTITLE8=In The Evenin'
TTITLE9=Junilee Blues
TTITLE10=The Sheik Of Araby
EXTD=
EXTT0=
EXTT1=
EXTT2=
EXTT3=
EXTT4=
EXTT5=
EXTT6=
EXTT7=
EXTT8=
EXTT9=
EXTT10=
PLAYORDER=
